<svg width="24" height="24" viewBox="0 0 24 24" fill="none" xmlns="http://www.w3.org/2000/svg">
<path d="M17.6 4H6.4C5.76348 4 5.15303 4.25286 4.70294 4.70294C4.25286 5.15303 4 5.76348 4 6.4V17.6C4 18.2365 4.25286 18.847 4.70294 19.2971C5.15303 19.7471 5.76348 20 6.4 20H17.6C18.2365 20 18.847 19.7471 19.2971 19.2971C19.7471 18.847 20 18.2365 20 17.6V6.4C20 5.76348 19.7471 5.15303 19.2971 4.70294C18.847 4.25286 18.2365 4 17.6 4Z" fill="#FFBC57"/>
<path fill-rule="evenodd" clip-rule="evenodd" d="M7.58965 12.4771C7.64561 12.6058 7.7261 12.7224 7.8266 12.8204L10.0084 15.0023L10.0094 15.0032C10.1086 15.103 10.2265 15.1822 10.3564 15.2363C10.4867 15.2906 10.6264 15.3185 10.7676 15.3185C10.9087 15.3185 11.0485 15.2906 11.1788 15.2363C11.3087 15.1822 11.4267 15.1029 11.5259 15.0031L11.5268 15.0023L16.1643 10.3647C16.2689 10.2661 16.3525 10.1475 16.4102 10.0158C16.4694 9.8805 16.5 9.73444 16.5 9.58677C16.5 9.43911 16.4694 9.29304 16.4102 9.15779C16.3524 9.02591 16.2686 8.9071 16.1639 8.80844C16.0661 8.71191 15.9507 8.63509 15.8238 8.58223C15.6935 8.52795 15.5537 8.5 15.4126 8.5C15.2714 8.5 15.1317 8.52795 15.0014 8.58223C14.8714 8.6364 14.7527 8.71638 14.6534 8.81628L10.7679 12.707L9.34006 11.2744L9.33326 11.2679C9.23109 11.1692 9.11048 11.0916 8.97832 11.0395C8.84616 10.9874 8.70504 10.9619 8.56301 10.9643C8.42097 10.9668 8.28082 10.9972 8.15054 11.0538C8.02026 11.1104 7.9024 11.1922 7.80371 11.2943C7.70502 11.3965 7.62741 11.5171 7.57533 11.6493C7.52325 11.7814 7.4977 11.9226 7.50016 12.0646C7.50262 12.2066 7.53303 12.3468 7.58965 12.4771Z" fill="white"/>
</svg>
