<svg width="80" height="80" viewBox="0 0 80 80" fill="none" xmlns="http://www.w3.org/2000/svg">
<path d="M38.4 77.5C46.132 77.5 52.4 71.232 52.4 63.5C52.4 55.768 46.132 49.5 38.4 49.5C30.668 49.5 24.4 55.768 24.4 63.5C24.4 71.232 30.668 77.5 38.4 77.5Z" fill="#FFBC57"/>
<path d="M13 38.5C19.6274 38.5 25 33.1274 25 26.5C25 19.8726 19.6274 14.5 13 14.5C6.37258 14.5 1 19.8726 1 26.5C1 33.1274 6.37258 38.5 13 38.5Z" fill="#FFBC57"/>
<path d="M59.6 49C70.6457 49 79.6 40.0457 79.6 29C79.6 17.9543 70.6457 9 59.6 9C48.5543 9 39.6 17.9543 39.6 29C39.6 40.0457 48.5543 49 59.6 49Z" fill="#FFBC57"/>
<path d="M70.8001 35.2002L42.8 25.2002L14.8 35.2002L42.8 45.2002L70.8001 35.2002Z" fill="white"/>
<path d="M37.8 27L14.8 35.2L37.8 43.5V27Z" fill="white"/>
<path d="M65 37.2999L42.8 29.3999V45.1999L65 37.2999Z" fill="white"/>
<path d="M42.8 45.9999C42.7 45.9999 42.6 45.9999 42.5 45.9999L14.5 35.9999C14.2 35.8999 14 35.5999 14 35.2999C14 34.9999 14.2 34.6999 14.5 34.5999L42.5 24.5999C42.7 24.4999 42.8 24.4999 43 24.5999L71 34.5999C71.3 34.6999 71.5 34.9999 71.5 35.2999C71.5 35.5999 71.3 35.8999 71 35.9999L43 45.9999C42.9 45.9999 42.8 45.9999 42.8 45.9999ZM17 35.1999L42.8 44.3999L68.6 35.1999L42.8 25.9999L17 35.1999Z" fill="#2B2929"/>
<path d="M38.8 18.2002L10.8 28.2002L14.8 35.2002L42.8 25.2002L38.8 18.2002Z" fill="white"/>
<path d="M42.8 25.2002L38.8 18.2002L32.5 20.5002L33.8 22.8002C34.4 23.9002 33.9001 25.3002 32.7001 25.7002L13.3 32.6002L14.8 35.2002L42.8 25.2002Z" fill="white"/>
<path d="M14.8 36C14.5 36 14.3 35.9 14.1 35.6L10.1 28.6C10 28.4 10 28.2 10.1 28C10.2 27.8 10.3 27.6 10.6 27.6L38.6 17.6C38.9 17.5 39.3 17.6 39.5 17.9L43.5 24.9C43.6 25.1 43.6 25.3 43.6 25.5C43.5 25.7 43.4 25.9 43.1 25.9L15 36C14.9 36 14.8 36 14.8 36ZM11.9 28.7L15.1 34.4L41.7 24.9L38.5 19.2L11.9 28.7Z" fill="#2B2929"/>
<path d="M46.8 18.2002L74.8001 28.2002L70.8001 35.2002L42.8 25.2002L46.8 18.2002Z" fill="white"/>
<path d="M70.8 36.0001C70.7 36.0001 70.6 36.0001 70.5 36.0001L42.5 26.0001C42.3 25.9001 42.1 25.8001 42 25.6001C41.9 25.4001 41.9 25.2001 42.1 25.0001L46.1 18.0001C46.3 17.7001 46.7 17.5001 47 17.7001L75 27.7001C75.2 27.8001 75.4 27.9001 75.5 28.1001C75.6 28.3001 75.6 28.5001 75.4 28.7001L71.4 35.7001C71.3 35.9001 71 36.0001 70.8 36.0001ZM43.9 24.8001L70.5 34.3001L73.7 28.6001L47.1 19.1001L43.9 24.8001Z" fill="#2B2929"/>
<path d="M42.8 70.2002L14.8 60.2002V35.2002L42.8 45.2002V70.2002Z" fill="white"/>
<path d="M36.4001 63.8002L14.8 56.0002V35.2002L37.8 43.4002V62.8002C37.8 63.5002 37.1001 64.0002 36.4001 63.8002Z" fill="white"/>
<path d="M42.8 71C42.7 71 42.6 71 42.5 71L14.5 61C14.2 60.9 14 60.6 14 60.3V35.3C14 35.1 14.1 34.8 14.3 34.7C14.5 34.6 14.8 34.5 15 34.6L43 44.6C43.3 44.7 43.5 45 43.5 45.3V70.3C43.5 70.5 43.4 70.8 43.2 70.9C43.1 71 42.9 71 42.8 71ZM15.5 59.7L42 69.2V45.8L15.5 36.3V59.7Z" fill="#2B2929"/>
<path d="M38.8 52.2002L10.8 42.2002L14.8 35.2002L42.8 45.2002L38.8 52.2002Z" fill="white"/>
<path d="M34.2 47.7002L12.2 39.8002L14.8 35.2002L38.4 43.6002L36.5999 46.7002C36.0999 47.6002 35.1 48.0002 34.2 47.7002Z" fill="white"/>
<path d="M38.8 53C38.7 53 38.6 53 38.5 53L10.5 43C10.3 42.9 10.1 42.8 10 42.6C10 42.3 10 42.1 10.1 41.9L14.1 34.9C14.3 34.6 14.7 34.4 15 34.6L43 44.6C43.2 44.7 43.4 44.8 43.5 45C43.6 45.2 43.6 45.4 43.4 45.6L39.4 52.6C39.3 52.9 39 53 38.8 53ZM11.9 41.8L38.5 51.3L41.7 45.6L15.1 36.1L11.9 41.8Z" fill="#2B2929"/>
<path d="M42.8 70.2002L70.8001 60.2002V35.2002L42.8 45.2002V70.2002Z" fill="white"/>
<path d="M42.8 65.8002L65.5 57.7002C66.3 57.4002 66.8001 56.7002 66.8001 55.8002V36.7002L42.8 45.3002V65.8002Z" fill="white"/>
<path d="M42.8 71C42.6 71 42.5 71 42.4 70.9C42.2 70.8 42.1 70.5 42.1 70.3V45.3C42.1 45 42.3 44.7 42.6 44.6L70.6 34.6C70.8 34.5 71.1 34.6 71.3 34.7C71.5 34.8 71.6 35.1 71.6 35.3V60.3C71.6 60.6 71.4 60.9 71.1 61L43 71C42.9 71 42.8 71 42.8 71ZM43.5 45.8V69.2L70 59.7V36.3L43.5 45.8Z" fill="#2B2929"/>
<path d="M46.8 52.2002L74.8001 42.2002L70.8001 35.2002L42.8 45.2002L46.8 52.2002Z" fill="white"/>
<path d="M45.3 49.5998L66.5 41.9998C67.7001 41.5998 68.2 40.1998 67.6 39.0998L66.3001 36.7998L42.8 45.1998L45.3 49.5998Z" fill="white"/>
<path d="M46.8 53C46.5 53 46.3 52.9 46.1 52.6L42.1 45.6C42 45.4 42 45.2 42.1 45C42.2 44.8 42.3 44.6 42.6 44.6L70.6 34.6C70.9 34.5 71.3 34.6 71.5 34.9L75.5 41.9C75.6 42.1 75.6 42.3 75.6 42.5C75.5 42.7 75.4 42.9 75.1 42.9L47 53C46.9 53 46.8 53 46.8 53ZM43.9 45.7L47.1 51.4L73.7 41.9L70.5 36.2L43.9 45.7Z" fill="#2B2929"/>
<path d="M48.8 19.5002V39.8002H36.8V19.5002H28.8L42.8 5.2002L56.7001 19.5002H48.8Z" fill="white"/>
<path d="M43.3 39H37.5V19.5C37.5 19.1 37.2 18.7 36.7 18.7H30.5L42.8 6.3L46 9.6C46.1 9.7 46.2 9.7 46.3 9.6L47 8.8C47.1 8.7 47.1 8.6 47 8.5L43.3 4.7C43.2 4.6 43 4.5 42.8 4.5C42.6 4.5 42.4 4.6 42.3 4.7L28.2 19C28 19.2 27.9 19.5 28 19.8C28.1 20.1 28.4 20.3 28.7 20.3H36V39.8C36 40.2 36.3 40.6 36.8 40.6H43.3C43.4 40.6 43.5 40.5 43.5 40.4V39.3C43.5 39.1 43.4 39 43.3 39Z" fill="#FFBC57"/>
<path d="M48 9.9002L47.2 10.7002C47.1 10.8002 47.1 10.9002 47.2 11.0002L54.9 18.8002H48.7C48.3 18.8002 47.9 19.1002 47.9 19.6002V39.0002H45.1C45 39.0002 45 39.1002 45 39.2002V40.3002C45 40.4002 45.1 40.5002 45.2 40.5002H48.8C49.2 40.5002 49.6 40.2002 49.6 39.7002V20.3002H56.8C57.1 20.3002 57.4 20.1002 57.5 19.8002C57.6 19.5002 57.6 19.2002 57.3 19.0002L48.4 9.9002C48.3 9.8002 48.1 9.8002 48 9.9002Z" fill="#2B2929"/>
</svg>
