<svg width="80" height="80" viewBox="0 0 80 80" fill="none" xmlns="http://www.w3.org/2000/svg">
<path d="M62.3175 40.8464C70.4995 40.8464 77.1323 34.2136 77.1323 26.0316C77.1323 17.8496 70.4995 11.2168 62.3175 11.2168C54.1355 11.2168 47.5027 17.8496 47.5027 26.0316C47.5027 34.2136 54.1355 40.8464 62.3175 40.8464Z" fill="#FFBC57"/>
<path d="M21.6825 25.3968C28.6957 25.3968 34.381 19.7116 34.381 12.6984C34.381 5.68527 28.6957 0 21.6825 0C14.6694 0 8.98413 5.68527 8.98413 12.6984C8.98413 19.7116 14.6694 25.3968 21.6825 25.3968Z" fill="#FFBC57"/>
<path d="M23.164 79.9999C34.8526 79.9999 44.328 70.5245 44.328 58.8359C44.328 47.1473 34.8526 37.6719 23.164 37.6719C11.4755 37.6719 2 47.1473 2 58.8359C2 70.5245 11.4755 79.9999 23.164 79.9999Z" fill="#FFBC57"/>
<path d="M39.3545 23.386C32.3704 24.2326 26.6561 29.841 25.7037 36.7193C25.1746 40.423 25.9153 43.9151 27.6085 46.8781L25.4921 55.0262L33.6402 53.0156C36.6032 54.7087 40.0952 55.4495 43.7989 54.9204C50.7831 53.8622 56.2857 48.2537 57.1323 41.2696C58.4021 30.7934 49.7249 22.1162 39.3545 23.386Z" fill="white"/>
<path d="M41.3651 55.8727C38.6138 55.8727 35.9683 55.2378 33.5344 53.8621L25.7037 55.7669C25.3863 55.8727 25.1746 55.7669 24.963 55.5553C24.7514 55.3436 24.6455 55.0261 24.7514 54.8145L26.6561 46.9838C24.963 43.8092 24.3281 40.2113 24.8572 36.6135C25.9154 29.206 31.8413 23.4918 39.2487 22.5394C44.4339 21.9045 49.5133 23.5976 53.1111 27.3013C56.8148 31.005 58.508 35.9785 57.873 41.1637C56.9207 48.5711 51.2064 54.4971 43.799 55.5553C43.0582 55.7669 42.2117 55.8727 41.3651 55.8727ZM33.6402 52.169C33.7461 52.169 33.9577 52.169 34.0635 52.2748C37.0265 53.968 40.3069 54.4971 43.6932 54.0738C50.3598 53.1214 55.545 47.7246 56.3916 41.0579C56.9207 36.4018 55.4392 31.7457 52.0529 28.4653C48.7725 25.1849 44.1164 23.5976 39.4604 24.1267C32.7937 24.9732 27.3969 30.1584 26.4445 36.8251C25.9154 40.2113 26.5503 43.4918 28.2434 46.4547C28.3492 46.6664 28.3492 46.878 28.3492 46.9838L26.6561 53.968L33.5344 52.2748C33.5344 52.169 33.6402 52.169 33.6402 52.169Z" fill="#2B2929"/>
<path d="M41.3651 44.3387C40.9418 44.3387 40.5185 44.0212 40.5185 43.4921V42.8572C40.5185 40.3175 42 39.1535 43.164 38.3069C44.2222 37.5662 44.963 36.9313 44.963 35.4498C44.963 33.7566 43.9048 32.381 42.4233 31.9577C41.2593 31.6402 39.9894 31.8519 39.037 32.4868C38.0846 33.2275 37.5555 34.2857 37.5555 35.4498C37.5555 35.8731 37.2381 36.2963 36.709 36.2963C36.2857 36.2963 35.8624 35.9789 35.8624 35.4498C35.8624 33.7566 36.709 32.1693 37.9788 31.217C39.3545 30.1588 41.0476 29.9471 42.7407 30.3704C44.963 31.0053 46.4444 33.0159 46.4444 35.4498C46.4444 37.7778 45.0688 38.7302 43.9048 39.5768C42.8466 40.4233 41.8942 41.0582 41.8942 42.8572V43.4921C42.2116 44.0212 41.8942 44.3387 41.3651 44.3387Z" fill="#FFBC57"/>
<path d="M42.1058 47.4073C41.6825 46.984 41.0476 46.984 40.6243 47.4073C40.4127 47.6189 40.3069 47.8306 40.3069 48.148C40.3069 48.4655 40.4127 48.6771 40.6243 48.8888C40.836 49.1004 41.0476 49.2062 41.3651 49.2062C41.6825 49.2062 41.8942 49.1004 42.1058 48.8888C42.3175 48.6771 42.4233 48.4655 42.4233 48.148C42.4233 47.8306 42.3175 47.5131 42.1058 47.4073Z" fill="#FFBC57"/>
<path d="M41.3651 70.8993C40.9418 70.8993 40.5185 70.5819 40.5185 70.0528C40.5185 69.6295 40.836 69.2062 41.3651 69.2062C57.873 69.2062 71.3122 55.7671 71.3122 39.2591C71.3122 22.9628 57.873 9.52369 41.3651 9.52369C24.963 9.52369 11.5238 22.9628 11.5238 39.365C11.5238 39.8941 11.2063 40.2115 10.6772 40.2115C10.254 40.2115 9.83069 39.8941 9.83069 39.365C9.83069 22.0105 23.9048 7.83057 41.2593 7.83057C58.6138 7.83057 72.8995 22.0105 72.8995 39.365C72.8995 56.7195 58.7196 70.8993 41.3651 70.8993Z" fill="#2B2929"/>
<path d="M44.5397 73.2278H38.1904C35.8624 73.2278 33.9576 71.323 33.9576 68.995C33.9576 66.667 35.8624 64.7622 38.1904 64.7622H44.5397C46.8677 64.7622 48.7725 66.667 48.7725 68.995C48.7725 71.4289 46.9735 73.2278 44.5397 73.2278Z" fill="white"/>
<path d="M44.5397 74.0738H38.1905C35.4391 74.0738 33.1111 71.8515 33.1111 68.9944C33.1111 66.2431 35.3333 63.915 38.1905 63.915H44.5397C47.291 63.915 49.619 66.1373 49.619 68.9944C49.619 71.8515 47.3968 74.0738 44.5397 74.0738ZM38.1905 65.6082C36.2857 65.6082 34.6984 67.1955 34.6984 69.1002C34.6984 71.005 36.2857 72.5923 38.1905 72.5923H44.5397C46.4444 72.5923 48.0317 71.005 48.0317 69.1002C48.0317 67.1955 46.4444 65.6082 44.5397 65.6082H38.1905Z" fill="#2B2929"/>
<path d="M15.9683 51.0055C11.3122 51.0055 7.50269 47.196 7.50269 42.5399V36.1907C7.50269 31.5346 11.3122 27.7251 15.9683 27.7251C17.1323 27.7251 18.0847 28.6775 18.0847 29.8415V48.8891C18.0847 50.159 17.1323 51.0055 15.9683 51.0055Z" fill="white"/>
<path d="M15.9683 51.852C10.8889 51.852 6.65613 47.725 6.65613 42.5398V36.1906C6.65613 31.1112 10.7831 26.8784 15.9683 26.8784C17.5556 26.8784 18.9313 28.1483 18.9313 29.8414V48.889C18.9313 50.5821 17.6614 51.852 15.9683 51.852ZM15.9683 28.5715C11.7355 28.5715 8.24343 32.0636 8.24343 36.2964V42.6456C8.24343 46.8784 11.7355 50.3705 15.9683 50.3705C16.709 50.3705 17.344 49.7356 17.344 48.9948V29.9472C17.344 29.2065 16.709 28.5715 15.9683 28.5715Z" fill="#2B2929"/>
<path d="M12.7937 46.561C12.3704 46.561 11.9471 46.2435 11.9471 45.7144V33.016C11.9471 32.5927 12.2646 32.1694 12.7937 32.1694C13.217 32.1694 13.6403 32.4869 13.6403 33.016V45.7144C13.6403 46.2435 13.3228 46.561 12.7937 46.561Z" fill="#2B2929"/>
<path d="M66.762 51.0055C65.598 51.0055 64.6456 50.0531 64.6456 48.8891V29.8415C64.6456 28.6775 65.598 27.7251 66.762 27.7251C71.4181 27.7251 75.2276 31.5346 75.2276 36.1907V42.5399C75.2276 47.3018 71.5239 51.0055 66.762 51.0055Z" fill="white"/>
<path d="M66.7619 51.852C65.1746 51.852 63.9048 50.5821 63.9048 48.889V29.8414C63.9048 28.2541 65.1746 26.8784 66.7619 26.8784C71.8413 26.8784 76.0741 31.0054 76.0741 36.1906V42.5398C76.0741 47.725 71.9471 51.852 66.7619 51.852ZM66.7619 28.5715C66.0212 28.5715 65.4921 29.2065 65.4921 29.9472V48.9948C65.4921 49.7356 66.127 50.3705 66.7619 50.3705C70.9947 50.3705 74.4868 46.8784 74.4868 42.6456V36.2964C74.4868 31.9578 70.9947 28.5715 66.7619 28.5715Z" fill="#2B2929"/>
<path d="M69.9365 46.561C69.5132 46.561 69.09 46.2435 69.09 45.7144V33.016C69.09 32.5927 69.4074 32.1694 69.9365 32.1694C70.3598 32.1694 70.7831 32.4869 70.7831 33.016V45.7144C70.7831 46.2435 70.4656 46.561 69.9365 46.561Z" fill="#2B2929"/>
<path d="M23.4814 18.5187C23.5873 18.4129 23.5873 18.5187 23.4814 18.5187C23.2698 18.6245 22.9523 18.8362 22.6349 18.942C23.0582 18.8362 23.2698 18.7304 23.4814 18.5187Z" fill="#FFBC57"/>
<path d="M41.3651 5.50293C32.8995 5.50293 25.1746 8.57171 19.2487 13.7569C18.1905 14.6035 18.1905 16.1908 19.1429 17.1431L20.4127 18.413C21.2593 19.2595 22.6349 19.2595 23.5873 18.5188C28.3492 14.3918 34.5926 11.958 41.4709 11.958C48.2434 11.958 54.5926 14.3918 59.3545 18.5188C60.3069 19.2595 61.6825 19.2595 62.5291 18.413L63.799 17.1431C64.7513 16.1908 64.7513 14.6035 63.6931 13.7569C57.6614 8.67753 49.8307 5.50293 41.3651 5.50293Z" fill="white"/>
<path d="M60.836 19.894C60.0952 19.894 59.3545 19.6824 58.8254 19.1533C53.9577 14.9204 47.8201 12.6982 41.3651 12.6982C35.0159 12.6982 28.8783 15.0263 24.0106 19.1533C22.7407 20.2115 20.9418 20.2115 19.7778 19.0474L18.5079 17.7776C17.873 17.1427 17.5555 16.2961 17.5555 15.4495C17.5555 14.603 17.9788 13.7564 18.6137 13.2273C24.8571 7.8305 32.8995 4.76172 41.2592 4.76172C49.619 4.76172 57.6614 7.72468 63.9047 13.2273C64.5397 13.7564 64.9629 14.603 64.9629 15.4495C64.9629 16.2961 64.6455 17.1427 64.0106 17.7776L62.7407 19.0474C62.4233 19.5765 61.5767 19.894 60.836 19.894ZM41.3651 11.1109C48.1376 11.1109 54.5926 13.5448 59.7778 17.8834C60.4127 18.4125 61.2592 18.4125 61.8942 17.7776L63.164 16.5078C63.4815 16.1903 63.5873 15.767 63.5873 15.3437C63.5873 14.9204 63.3756 14.4972 63.0582 14.2855C57.0264 9.20616 49.3016 6.34902 41.3651 6.34902C33.4286 6.34902 25.7037 9.20616 19.7778 14.3913C19.4603 14.7088 19.2487 15.0263 19.2487 15.4495C19.2487 15.8728 19.3545 16.2961 19.6719 16.6136L20.9418 17.8834C21.4709 18.4125 22.4233 18.5183 23.0582 17.9892C28.1376 13.5448 34.6984 11.1109 41.3651 11.1109Z" fill="#2B2929"/>
</svg>
