<svg width="80" height="80" viewBox="0 0 80 80" fill="none" xmlns="http://www.w3.org/2000/svg">
<path d="M66.1729 40.8023C73.8094 40.8023 80 34.6116 80 26.9751C80 19.3386 73.8094 13.1479 66.1729 13.1479C58.5363 13.1479 52.3457 19.3386 52.3457 26.9751C52.3457 34.6116 58.5363 40.8023 66.1729 40.8023Z" fill="#FFBC57"/>
<path d="M34.2717 24.7037C40.8172 24.7037 46.1235 19.3974 46.1235 12.8519C46.1235 6.30625 40.8172 1 34.2717 1C27.7261 1 22.4198 6.30625 22.4198 12.8519C22.4198 19.3974 27.7261 24.7037 34.2717 24.7037Z" fill="#FFBC57"/>
<path d="M19.7531 78.5311C30.6624 78.5311 39.5062 69.6873 39.5062 58.778C39.5062 47.8687 30.6624 39.0249 19.7531 39.0249C8.84376 39.0249 0 47.8687 0 58.778C0 69.6873 8.84376 78.5311 19.7531 78.5311Z" fill="#FFBC57"/>
<path d="M69.037 41.6292L63.9012 39.4564H50.074C47.9012 39.4564 46.1234 37.6786 46.1234 35.5057V20.6909H39.2098V60.1971H66.6666C67.4568 60.1971 68.2469 59.9008 68.7407 59.3082L69.9259 58.123C70.5185 57.5304 70.8148 56.8391 70.8148 56.0489V44.2959C70.8148 43.1107 70.1234 42.0243 69.037 41.6292Z" fill="white"/>
<path d="M63.1111 41.6292L57.9753 39.4564H50.074C47.9012 39.4564 46.1234 37.6786 46.1234 35.5057V20.6909H39.2098V60.1971H60.7407C61.5308 60.1971 62.3209 59.9008 62.8148 59.3082L64 58.123C64.5926 57.5304 64.8888 56.8391 64.8888 56.0489V44.2959C64.8888 43.1107 64.1975 42.0243 63.1111 41.6292Z" fill="white"/>
<path d="M60.9382 47.3574L63.9012 53.2833H70.8148V47.3574H60.9382Z" fill="white"/>
<path d="M60.9382 47.3574L62.9135 51.308H66.8642C67.4567 51.308 67.8518 50.913 67.8518 50.3204V47.3574H60.9382Z" fill="white"/>
<path d="M70.8148 53.9753H63.9012C63.6049 53.9753 63.4074 53.7777 63.2099 53.5802L60.2469 47.6543C60.1482 47.4568 60.1482 47.1605 60.2469 46.9629C60.3457 46.7654 60.642 46.5679 60.8395 46.5679H70.7161C71.1111 46.5679 71.5062 46.8642 71.5062 47.358V53.2839C71.605 53.679 71.3087 53.9753 70.8148 53.9753ZM64.3951 52.4938H70.1235V48.0494H62.2222L64.3951 52.4938Z" fill="#2B2929"/>
<path d="M50.074 39.4564H63.9012L56.2963 23.9502C55.3086 21.9749 53.2345 20.6909 50.9629 20.6909H46.1234V35.5057C46.1234 37.6786 47.9012 39.4564 50.074 39.4564Z" fill="white"/>
<path d="M56.2963 23.9502C55.3086 21.9749 53.2345 20.6909 50.9629 20.6909H46.1234C48.2963 20.6909 50.3703 21.9749 51.358 23.9502L58.9629 39.4564H63.9012L56.2963 23.9502Z" fill="white"/>
<path d="M63.9013 40.1478H50.0741C47.5062 40.1478 45.3334 38.0737 45.3334 35.5058V20.691C45.3334 20.2959 45.6297 19.9009 46.1235 19.9009H50.963C53.5309 19.9009 55.8025 21.2836 56.9877 23.654L64.5926 39.1601C64.6914 39.3577 64.6914 39.654 64.5926 39.8515C64.3951 40.049 64.1976 40.1478 63.9013 40.1478ZM46.9136 21.3824V35.5058C46.9136 37.2836 48.3951 38.6663 50.1729 38.6663H62.8149L55.7037 24.2466C54.8149 22.4688 53.0371 21.3824 51.0618 21.3824H46.9136Z" fill="#2B2929"/>
<path d="M9.58029 12.7896C8.49387 12.7896 7.60498 13.6784 7.60498 14.7649V58.2216C7.60498 59.3081 8.49387 60.197 9.58029 60.197H39.2099V14.7649C39.2099 13.6784 38.321 12.7896 37.2346 12.7896H9.58029Z" fill="white"/>
<path d="M9.58029 12.7896C8.49387 12.7896 7.60498 13.6784 7.60498 14.7649V55.2587H31.3087C32.3951 55.2587 33.284 54.3698 33.284 53.2834V12.7896H9.58029Z" fill="white"/>
<path d="M39.2099 60.8889H9.58025C8.09877 60.8889 6.81482 59.7037 6.81482 58.1235V14.6667C6.91358 13.1852 8.09877 12 9.58025 12H37.2346C38.7161 12 40 13.1852 40 14.7654V60.1975C40 60.5926 39.7037 60.8889 39.2099 60.8889ZM9.58025 13.4815C8.88889 13.4815 8.2963 14.0741 8.2963 14.7654V58.2222C8.2963 58.9136 8.88889 59.5062 9.58025 59.5062H38.5185V14.7654C38.5185 14.0741 37.9259 13.4815 37.2346 13.4815H9.58025Z" fill="#2B2929"/>
<path d="M66.6667 60.8887H39.2099C38.8149 60.8887 38.4198 60.5924 38.4198 60.0985V20.5924C38.4198 20.1973 38.7161 19.8022 39.2099 19.8022H46.1235C46.5186 19.8022 46.9136 20.0985 46.9136 20.5924V35.4072C46.9136 37.185 48.3951 38.5677 50.1729 38.5677H64C64.0988 38.5677 64.1976 38.5677 64.2963 38.6664L69.4321 40.8393C70.8149 41.4319 71.7037 42.7158 71.7037 44.1973V55.8516C71.7037 56.8393 71.3087 57.7282 70.6173 58.5183L69.4321 59.7035C68.5433 60.4936 67.6544 60.8887 66.6667 60.8887ZM40 59.4072H66.6667C67.2593 59.4072 67.8519 59.2097 68.247 58.7158L69.4321 57.5306C69.8272 57.1356 70.1235 56.543 70.1235 55.9504V44.2961C70.1235 43.4072 69.6297 42.6171 68.7408 42.222L63.8025 40.0492H50.0741C47.5062 40.0492 45.3334 37.9751 45.3334 35.4072V21.3825H39.9013V59.4072H40Z" fill="#2B2929"/>
<path d="M23.4074 66.1228C26.6802 66.1228 29.3333 63.4697 29.3333 60.1969C29.3333 56.9241 26.6802 54.271 23.4074 54.271C20.1346 54.271 17.4814 56.9241 17.4814 60.1969C17.4814 63.4697 20.1346 66.1228 23.4074 66.1228Z" fill="white"/>
<path d="M26.5679 55.0615C27.1605 55.9504 27.4568 57.0368 27.4568 58.1233C27.4568 61.3825 24.7901 64.0492 21.5308 64.0492C20.4444 64.0492 19.358 63.7529 18.4691 63.1603C19.5555 64.8393 21.3333 66.0245 23.5062 66.0245C26.7654 66.0245 29.4321 63.3578 29.4321 60.0986C29.3333 58.0245 28.2469 56.1479 26.5679 55.0615Z" fill="white"/>
<path d="M23.4075 66.8144C19.7531 66.8144 16.6914 63.8515 16.6914 60.0984C16.6914 56.4441 19.6544 53.3823 23.4075 53.3823C27.1605 53.3823 30.1235 56.3453 30.1235 60.0984C30.1235 63.8515 27.1605 66.8144 23.4075 66.8144ZM23.4075 54.9626C20.5433 54.9626 18.1729 57.3329 18.1729 60.1971C18.1729 63.0613 20.5433 65.4317 23.4075 65.4317C26.2717 65.4317 28.642 63.0613 28.642 60.1971C28.642 57.3329 26.2717 54.9626 23.4075 54.9626Z" fill="#2B2929"/>
<path d="M23.4074 62.1723C24.4984 62.1723 25.3827 61.2879 25.3827 60.197C25.3827 59.1061 24.4984 58.2217 23.4074 58.2217C22.3165 58.2217 21.4321 59.1061 21.4321 60.197C21.4321 61.2879 22.3165 62.1723 23.4074 62.1723Z" fill="white"/>
<path d="M23.4074 62.8639C21.9259 62.8639 20.642 61.6787 20.642 60.0984C20.642 58.617 21.8272 57.333 23.4074 57.333C24.9876 57.333 26.1728 58.5182 26.1728 60.0984C26.1728 61.6787 24.9876 62.8639 23.4074 62.8639ZM23.4074 58.9133C22.716 58.9133 22.1234 59.5058 22.1234 60.1972C22.1234 60.8886 22.716 61.4812 23.4074 61.4812C24.0988 61.4812 24.6914 60.8886 24.6914 60.1972C24.6914 59.5058 24.0988 58.9133 23.4074 58.9133Z" fill="#2B2929"/>
<path d="M55.0124 66.1228C58.2851 66.1228 60.9383 63.4697 60.9383 60.1969C60.9383 56.9241 58.2851 54.271 55.0124 54.271C51.7396 54.271 49.0864 56.9241 49.0864 60.1969C49.0864 63.4697 51.7396 66.1228 55.0124 66.1228Z" fill="white"/>
<path d="M58.1729 55.0615C58.7655 55.9504 59.0617 57.0368 59.0617 58.1233C59.0617 61.3825 56.3951 64.0492 53.1358 64.0492C52.0494 64.0492 50.963 63.7529 50.0741 63.1603C51.1605 64.8393 52.9383 66.0245 55.1111 66.0245C58.3704 66.0245 61.0371 63.3578 61.0371 60.0986C60.9383 58.0245 59.8519 56.1479 58.1729 55.0615Z" fill="white"/>
<path d="M55.0123 66.8144C51.358 66.8144 48.2963 63.8515 48.2963 60.0984C48.2963 56.4441 51.2592 53.3823 55.0123 53.3823C58.6666 53.3823 61.7284 56.3453 61.7284 60.0984C61.7284 63.8515 58.7654 66.8144 55.0123 66.8144ZM55.0123 54.9626C52.1481 54.9626 49.7777 57.3329 49.7777 60.1971C49.7777 63.0613 52.1481 65.4317 55.0123 65.4317C57.8765 65.4317 60.2469 63.0613 60.2469 60.1971C60.2469 57.3329 57.8765 54.9626 55.0123 54.9626Z" fill="#2B2929"/>
<path d="M55.0123 62.1723C56.1032 62.1723 56.9876 61.2879 56.9876 60.197C56.9876 59.1061 56.1032 58.2217 55.0123 58.2217C53.9214 58.2217 53.037 59.1061 53.037 60.197C53.037 61.2879 53.9214 62.1723 55.0123 62.1723Z" fill="white"/>
<path d="M55.0124 62.8639C53.5309 62.8639 52.2469 61.6787 52.2469 60.0984C52.2469 58.617 53.4321 57.333 55.0124 57.333C56.4939 57.333 57.7778 58.5182 57.7778 60.0984C57.7778 61.6787 56.5926 62.8639 55.0124 62.8639ZM55.0124 58.9133C54.321 58.9133 53.7284 59.5058 53.7284 60.1972C53.7284 60.8886 54.321 61.4812 55.0124 61.4812C55.7037 61.4812 56.2963 60.8886 56.2963 60.1972C56.2963 59.5058 55.7037 58.9133 55.0124 58.9133Z" fill="#2B2929"/>
<path d="M51.0617 44.0983H47.111C46.716 44.0983 46.3209 43.802 46.3209 43.3082C46.3209 42.9131 46.6172 42.5181 47.111 42.5181H51.0617C51.4567 42.5181 51.8518 42.8144 51.8518 43.3082C51.8518 43.802 51.5555 44.0983 51.0617 44.0983Z" fill="#2B2929"/>
<path d="M34.2716 38.1725H12.5432C12.1481 38.1725 11.7531 37.8762 11.7531 37.3824C11.7531 36.9873 12.0493 36.5923 12.5432 36.5923H34.2716C34.6666 36.5923 35.0617 36.8886 35.0617 37.3824C35.0617 37.8762 34.7654 38.1725 34.2716 38.1725Z" fill="#FFBC57"/>
<path d="M34.2716 44.0983H12.5432C12.1481 44.0983 11.7531 43.802 11.7531 43.3082C11.7531 42.9131 12.0493 42.5181 12.5432 42.5181H34.2716C34.6666 42.5181 35.0617 42.8144 35.0617 43.3082C35.0617 43.802 34.7654 44.0983 34.2716 44.0983Z" fill="#FFBC57"/>
<path d="M34.2716 50.0246H12.5432C12.1481 50.0246 11.7531 49.7283 11.7531 49.2345C11.7531 48.8394 12.0493 48.4443 12.5432 48.4443H34.2716C34.6666 48.4443 35.0617 48.7406 35.0617 49.2345C35.0617 49.7283 34.7654 50.0246 34.2716 50.0246Z" fill="#FFBC57"/>
<path d="M34.2716 32.2468H12.5432C12.1481 32.2468 11.7531 31.9505 11.7531 31.4566C11.7531 31.0616 12.0493 30.6665 12.5432 30.6665H34.2716C34.6666 30.6665 35.0617 30.9628 35.0617 31.4566C35.0617 31.9505 34.7654 32.2468 34.2716 32.2468Z" fill="#FFBC57"/>
<path d="M34.2716 26.3205H12.5432C12.1481 26.3205 11.7531 26.0242 11.7531 25.5304C11.7531 25.1353 12.0493 24.7402 12.5432 24.7402H34.2716C34.6666 24.7402 35.0617 25.0365 35.0617 25.5304C35.0617 26.0242 34.7654 26.3205 34.2716 26.3205Z" fill="#2B2929"/>
<path d="M34.2716 20.3947H12.5432C12.1481 20.3947 11.7531 20.0984 11.7531 19.6046C11.7531 19.2095 12.0493 18.8145 12.5432 18.8145H34.2716C34.6666 18.8145 35.0617 19.1107 35.0617 19.6046C35.0617 20.0984 34.7654 20.3947 34.2716 20.3947Z" fill="#2B2929"/>
</svg>
