<svg width="80" height="80" viewBox="0 0 80 80" fill="none" xmlns="http://www.w3.org/2000/svg">
<path d="M13.9651 73.8179C21.6778 73.8179 27.9302 67.5655 27.9302 59.8528C27.9302 52.1401 21.6778 45.8877 13.9651 45.8877C6.25238 45.8877 0 52.1401 0 59.8528C0 67.5655 6.25238 73.8179 13.9651 73.8179Z" fill="#FFBC57"/>
<path d="M36.2096 24.9402C42.8205 24.9402 48.1797 19.581 48.1797 12.9701C48.1797 6.35919 42.8205 1 36.2096 1C29.5987 1 24.2395 6.35919 24.2395 12.9701C24.2395 19.581 29.5987 24.9402 36.2096 24.9402Z" fill="#FFBC57"/>
<path d="M60.0497 78.8055C71.0679 78.8055 79.9999 69.8735 79.9999 58.8554C79.9999 47.8372 71.0679 38.9053 60.0497 38.9053C49.0316 38.9053 40.0996 47.8372 40.0996 58.8554C40.0996 69.8735 49.0316 78.8055 60.0497 78.8055Z" fill="#FFBC57"/>
<path d="M41.1971 73.7183C58.8261 73.7183 73.1173 59.4272 73.1173 41.7981C73.1173 24.1691 58.8261 9.87793 41.1971 9.87793C23.568 9.87793 9.27686 24.1691 9.27686 41.7981C9.27686 59.4272 23.568 73.7183 41.1971 73.7183Z" fill="white"/>
<path d="M41.197 74.4167C23.1421 74.4167 8.47876 59.7534 8.47876 41.6985C8.47876 23.6437 23.1421 9.08008 41.197 9.08008C59.2518 9.08008 73.8154 23.7434 73.8154 41.7983C73.8154 59.8532 59.1521 74.4167 41.197 74.4167ZM41.197 10.5763C23.9401 10.5763 9.97502 24.5414 9.97502 41.7983C9.97502 58.9554 23.9401 73.0202 41.197 73.0202C58.3541 73.0202 72.4189 59.0551 72.4189 41.7983C72.3192 24.5414 58.3541 10.5763 41.197 10.5763Z" fill="#2B2929"/>
<path d="M40.5985 29.8276L34.3142 25.6381C30.2244 22.9449 24.8379 23.5434 21.5461 27.1344L16.2593 32.8202C15.2618 33.9174 14.763 35.3139 14.9625 36.8102L18.9526 68.2316C19.1521 69.8277 20.6483 71.0247 22.2443 70.8252L43.99 68.1319C45.586 67.9324 46.783 66.4361 46.5835 64.8401L42.6932 33.4187C42.5935 31.9224 41.7955 30.6257 40.5985 29.8276Z" fill="white"/>
<path d="M21.9452 71.5238C21.1472 71.5238 20.3492 71.2245 19.6509 70.7258C18.8529 70.1273 18.3542 69.2295 18.2544 68.232L14.3642 36.9103C14.1647 35.2146 14.6634 33.5188 15.8604 32.3218L21.1472 26.636C24.7382 22.7457 30.5238 22.0475 34.9128 25.04L41.1971 29.2295C42.5936 30.1273 43.4913 31.6235 43.6908 33.3193L47.5811 64.7407C47.6809 65.7383 47.4814 66.7358 46.7831 67.5338C46.1846 68.3318 45.2869 68.8305 44.2893 68.9303L22.5437 71.6235C22.2445 71.5238 22.045 71.5238 21.9452 71.5238ZM28.828 24.641C26.3342 24.641 23.9402 25.6385 22.1447 27.6335L16.8579 33.3193C16.0599 34.2171 15.6609 35.5138 15.7607 36.7108L19.6509 68.0325C19.7507 68.631 20.0499 69.1298 20.5487 69.5288C21.0475 69.9278 21.646 70.0275 22.2445 70.0275L43.9901 67.3343C44.5886 67.2345 45.0874 66.9353 45.4864 66.4365C45.8854 65.9378 45.9851 65.3393 45.9851 64.7407L42.0948 33.3193C41.8953 32.1223 41.2968 31.025 40.2993 30.3268L33.9153 26.237C32.419 25.2395 30.6235 24.641 28.828 24.641Z" fill="#2B2929"/>
<path d="M46.0848 20.0526L38.9028 17.7583C34.3142 16.2621 29.2269 18.3568 27.0324 22.7459L23.5412 29.6287C22.9427 30.9254 22.9427 32.5214 23.5412 33.8182L35.9102 62.9454C36.6085 64.4416 38.3043 65.1399 39.8005 64.5414L60.0499 55.8631C61.5462 55.2646 62.2444 53.4691 61.6459 51.9728L49.1771 22.8456C48.5786 21.5489 47.4813 20.5514 46.0848 20.0526Z" fill="white"/>
<path d="M38.6035 65.4391C37.1073 65.4391 35.8105 64.5413 35.1123 63.1448L22.8429 34.1174C22.1447 32.5213 22.2444 30.8256 22.9427 29.3293L26.434 22.4465C28.828 17.7583 34.2145 15.464 39.202 17.06L46.3841 19.3543C47.9801 19.853 49.2768 21.05 49.8754 22.5463L62.2444 51.6735C63.0424 53.5687 62.1447 55.7632 60.2494 56.5612L40.0998 65.1398C39.601 65.3393 39.1023 65.4391 38.6035 65.4391ZM35.9103 18.0575C32.5187 18.0575 29.4265 19.9528 27.8305 23.1448L24.3392 30.0276C23.7407 31.1248 23.7407 32.4216 24.2394 33.6186L36.6085 62.646C37.1073 63.7433 38.404 64.3418 39.601 63.843L59.7507 55.2645C60.8479 54.7657 61.4464 53.469 60.9477 52.272L48.4788 23.1448C47.9801 22.0475 47.0823 21.1498 45.8853 20.7508L38.7033 18.4565C37.8055 18.1573 36.808 18.0575 35.9103 18.0575Z" fill="#2B2929"/>
<path d="M35.8105 32.4216C35.1123 32.4216 34.5138 32.3219 33.8155 32.0226C32.5188 31.5239 31.5213 30.5264 30.9228 29.2296C30.3243 27.9329 30.3243 26.5364 30.9228 25.2396C31.4215 23.9428 32.419 22.9453 33.7158 22.3468C35.0125 21.7483 36.409 21.7483 37.7058 22.3468C39.0026 22.8456 40.0001 23.8431 40.5986 25.1398C41.1971 26.4366 41.1971 27.8331 40.5986 29.1299C40.0998 30.4266 39.1023 31.4241 37.8055 32.0226C37.207 32.2221 36.5088 32.4216 35.8105 32.4216ZM35.8105 23.4441C35.3118 23.4441 34.813 23.5438 34.3143 23.7433C33.4165 24.1423 32.7183 24.8406 32.3193 25.7383C31.9203 26.6361 31.9203 27.6336 32.3193 28.6311C32.7183 29.5289 33.4165 30.2271 34.3143 30.6261C35.212 31.0251 36.2095 31.0251 37.207 30.6261C38.1048 30.2271 38.8031 29.5289 39.2021 28.6311C39.6011 27.7334 39.6011 26.7359 39.2021 25.7383C38.8031 24.8406 38.1048 24.1423 37.1073 23.7433C36.808 23.5438 36.3093 23.4441 35.8105 23.4441Z" fill="#2B2929"/>
<path d="M37.4063 28.4314C36.2093 28.4314 35.4113 27.8329 35.0123 27.3341C34.1146 26.2369 34.0148 24.5411 34.6133 22.4464C34.7131 22.0473 35.1121 21.8478 35.5111 21.9476C35.9101 22.0473 36.1096 22.4464 36.0098 22.8454C35.5111 24.3416 35.6108 25.7381 36.1096 26.3366C36.4088 26.7356 36.9076 26.8354 37.5061 26.8354C39.9001 26.6359 43.2916 23.5436 44.8876 20.0523C46.0846 17.5586 45.8851 15.8628 45.3864 15.1646C45.0871 14.7656 44.5884 14.5661 43.9899 14.5661C42.4936 14.6658 40.4986 15.9626 38.8029 17.9576C38.5036 18.2568 38.1046 18.3566 37.7056 18.0573C37.4063 17.7581 37.3066 17.3591 37.6058 16.9601C39.6009 14.6658 41.8951 13.1695 43.8901 12.97C45.0871 12.8703 46.0846 13.2693 46.6831 14.167C47.6807 15.5636 47.4812 17.9576 46.2841 20.5511C44.3889 24.6409 40.5984 28.0324 37.6058 28.2319C37.6058 28.4314 37.5061 28.4314 37.4063 28.4314Z" fill="#2B2929"/>
<path d="M39.7006 58.5562C39.6008 58.5562 39.5011 58.5562 39.4013 58.4565C39.0023 58.257 38.8028 57.858 39.0023 57.459L47.9799 35.2146C48.1794 34.8156 48.5784 34.6161 48.9774 34.8156C49.3764 35.0151 49.5759 35.4141 49.3764 35.8131L40.3988 58.0575C40.2991 58.3567 39.9998 58.5562 39.7006 58.5562Z" fill="#FFBC57"/>
<path d="M39.8004 42.6958C40.4986 44.1921 39.7006 45.9876 38.2044 46.6858C36.7081 47.3841 34.9126 46.5861 34.2144 45.0898C33.5161 43.5936 34.3141 41.7981 35.8104 41.0998C37.4064 40.4015 39.2019 41.0998 39.8004 42.6958Z" fill="white"/>
<path d="M37.0074 47.5835C36.5086 47.5835 36.0099 47.4838 35.6109 47.2843C34.7131 46.8853 33.9151 46.187 33.5161 45.2893C32.7181 43.394 33.6158 41.1995 35.5111 40.3017C37.4064 39.5037 39.6009 40.4015 40.4986 42.2967C40.8976 43.1945 40.8976 44.2918 40.4986 45.1895C40.0996 46.0873 39.4014 46.8853 38.5036 47.2843C38.0049 47.4838 37.5061 47.5835 37.0074 47.5835ZM37.0074 41.5985C36.7081 41.5985 36.4089 41.6982 36.1096 41.798C34.9126 42.2967 34.4138 43.5935 34.9126 44.7905C35.1121 45.389 35.6109 45.788 36.1096 45.9875C36.7081 46.187 37.3066 46.187 37.8054 45.9875C38.4039 45.788 38.8029 45.2893 39.0024 44.7905C39.2019 44.192 39.2019 43.5935 39.0024 43.0947C38.7031 42.0972 37.9051 41.5985 37.0074 41.5985Z" fill="#FFBC57"/>
<path d="M54.0648 48.382C54.763 49.8783 53.965 51.6738 52.4688 52.3721C50.9725 53.0703 49.177 52.2723 48.4788 50.776C47.7805 49.2798 48.5785 47.4843 50.0748 46.786C51.6708 46.1875 53.4663 46.8858 54.0648 48.382Z" fill="white"/>
<path d="M51.2718 53.3692C49.7755 53.3692 48.379 52.4714 47.7805 51.0749C46.9825 49.1796 47.8802 46.9851 49.7755 46.0874C51.6708 45.2894 53.8653 46.1871 54.763 48.0824C55.561 49.9777 54.6633 52.1722 52.768 53.0699C52.2693 53.2694 51.7705 53.3692 51.2718 53.3692ZM51.2718 47.2844C50.9725 47.2844 50.6733 47.3841 50.374 47.4839C49.177 47.9826 48.6782 49.2794 49.177 50.4764C49.6758 51.6734 50.9725 52.1722 52.1695 51.6734C53.3665 51.1747 53.8653 49.8779 53.3665 48.6809C53.0673 47.8829 52.1695 47.2844 51.2718 47.2844Z" fill="#FFBC57"/>
<path d="M22.3442 54.9653C21.9452 54.9653 21.6459 54.6661 21.6459 54.2671L19.8504 39.6037C19.7507 39.2047 20.0499 38.8057 20.5487 38.8057C20.9477 38.706 21.3467 39.0052 21.3467 39.504L23.1422 54.1673C23.1422 54.5663 22.8429 54.8656 22.3442 54.9653C22.4439 54.9653 22.3442 54.9653 22.3442 54.9653Z" fill="#2B2929"/>
<path d="M23.4415 63.4438C23.0425 63.4438 22.7432 63.1446 22.7432 62.7456L22.2445 58.7555C22.1447 58.3565 22.444 57.9575 22.9427 57.9575C23.3417 57.9575 23.7407 58.157 23.7407 58.6558L24.2395 62.6458C24.1397 62.9451 23.9402 63.3441 23.4415 63.4438Z" fill="#2B2929"/>
</svg>
