<svg width="24" height="18" viewBox="0 0 24 18" fill="none" xmlns="http://www.w3.org/2000/svg">
<path d="M23.1834 1.01668C23.0285 0.860465 22.8441 0.736474 22.641 0.651859C22.4379 0.567245 22.2201 0.523682 22.0001 0.523682C21.7801 0.523682 21.5622 0.567245 21.3591 0.651859C21.156 0.736474 20.9717 0.860465 20.8167 1.01668L8.40008 13.45L3.18341 8.21668C3.02254 8.06128 2.83264 7.93909 2.62455 7.85708C2.41646 7.77508 2.19425 7.73486 1.97062 7.73873C1.74698 7.7426 1.5263 7.79048 1.32117 7.87963C1.11604 7.96879 0.930476 8.09748 0.775079 8.25835C0.619681 8.41922 0.497491 8.60912 0.415485 8.81721C0.333478 9.0253 0.293261 9.24751 0.29713 9.47114C0.300999 9.69478 0.348879 9.91546 0.438034 10.1206C0.52719 10.3257 0.655876 10.5113 0.816746 10.6667L7.21675 17.0667C7.37169 17.2229 7.55602 17.3469 7.75912 17.4315C7.96222 17.5161 8.18006 17.5597 8.40008 17.5597C8.6201 17.5597 8.83794 17.5161 9.04104 17.4315C9.24414 17.3469 9.42848 17.2229 9.58341 17.0667L23.1834 3.46668C23.3526 3.31061 23.4876 3.12119 23.5799 2.91036C23.6723 2.69952 23.72 2.47185 23.72 2.24168C23.72 2.01151 23.6723 1.78383 23.5799 1.573C23.4876 1.36217 23.3526 1.17275 23.1834 1.01668Z" fill="#FFBC57"/>
</svg>
