<svg width="80" height="80" viewBox="0 0 80 80" fill="none" xmlns="http://www.w3.org/2000/svg">
<g clip-path="url(#clip0_131_3174)">
<circle cx="40" cy="39.75" r="40" fill="white"/>
<path d="M56.7138 35.0301C56.4347 32.1258 55.4083 29.3432 53.7345 26.9533C52.0606 24.5635 49.7965 22.6478 47.1624 21.3928C44.5284 20.1378 41.6143 19.5863 38.7038 19.792C35.7933 19.9978 32.9857 20.9536 30.5544 22.5666C28.4656 23.9633 26.7121 25.8053 25.4198 27.9603C24.1275 30.1152 23.3285 32.5297 23.0802 35.0301C22.8367 37.5142 23.1492 40.0213 23.995 42.3696C24.8408 44.7179 26.1987 46.8485 27.9702 48.6068L38.5056 59.162C38.6904 59.3483 38.9102 59.4962 39.1525 59.5971C39.3947 59.698 39.6545 59.75 39.9169 59.75C40.1793 59.75 40.4391 59.698 40.6814 59.5971C40.9236 59.4962 41.1435 59.3483 41.3283 59.162L51.8238 48.6068C53.5954 46.8485 54.9533 44.7179 55.7991 42.3696C56.6449 40.0213 56.9574 37.5142 56.7138 35.0301ZM49.0409 45.804L39.897 54.9479L30.7532 45.804C29.4056 44.4564 28.3734 42.8269 27.7306 41.0328C27.0879 39.2387 26.8507 37.3244 27.036 35.4277C27.2225 33.5017 27.8346 31.6412 28.8281 29.9808C29.8216 28.3203 31.1717 26.9014 32.7807 25.8266C34.8897 24.4257 37.3652 23.6784 39.897 23.6784C42.4289 23.6784 44.9044 24.4257 47.0134 25.8266C48.6175 26.8973 49.9646 28.3099 50.9579 29.9631C51.9511 31.6163 52.5659 33.4689 52.7581 35.3879C52.9494 37.2911 52.7152 39.213 52.0723 41.0145C51.4294 42.816 50.3939 44.452 49.0409 45.804ZM39.897 27.8144C38.1279 27.8144 36.3984 28.339 34.9274 29.3219C33.4564 30.3048 32.3099 31.7019 31.6328 33.3364C30.9558 34.9709 30.7787 36.7694 31.1238 38.5046C31.469 40.2398 32.3209 41.8337 33.5719 43.0846C34.8229 44.3356 36.4168 45.1876 38.1519 45.5327C39.8871 45.8779 41.6857 45.7007 43.3202 45.0237C44.9547 44.3467 46.3517 43.2002 47.3346 41.7291C48.3175 40.2581 48.8421 38.5287 48.8421 36.7595C48.8369 34.3887 47.8928 32.1166 46.2164 30.4402C44.54 28.7638 42.2678 27.8197 39.897 27.8144ZM39.897 41.729C38.9142 41.729 37.9534 41.4375 37.1361 40.8915C36.3189 40.3454 35.6819 39.5693 35.3058 38.6613C34.9297 37.7532 34.8313 36.754 35.023 35.79C35.2148 34.826 35.6881 33.9405 36.3831 33.2455C37.0781 32.5505 37.9635 32.0772 38.9275 31.8855C39.8915 31.6937 40.8907 31.7922 41.7988 32.1683C42.7068 32.5444 43.483 33.1814 44.029 33.9986C44.5751 34.8158 44.8665 35.7766 44.8665 36.7595C44.8665 38.0775 44.343 39.3415 43.411 40.2735C42.479 41.2054 41.215 41.729 39.897 41.729Z" fill="#FFBC57"/>
</g>
<defs>
<clipPath id="clip0_131_3174">
<rect width="80" height="80" fill="white"/>
</clipPath>
</defs>
</svg>
