<svg width="80" height="80" viewBox="0 0 80 80" fill="none" xmlns="http://www.w3.org/2000/svg">
<g clip-path="url(#clip0_131_3230)">
<circle cx="40" cy="39.75" r="40" fill="white"/>
<path d="M58.1818 49.0909H21.8182C21.336 49.0909 20.8735 49.2825 20.5325 49.6234C20.1916 49.9644 20 50.4269 20 50.9091C20 51.3913 20.1916 51.8538 20.5325 52.1947C20.8735 52.5357 21.336 52.7273 21.8182 52.7273H58.1818C58.664 52.7273 59.1265 52.5357 59.4675 52.1947C59.8084 51.8538 60 51.3913 60 50.9091C60 50.4269 59.8084 49.9644 59.4675 49.6234C59.1265 49.2825 58.664 49.0909 58.1818 49.0909ZM58.1818 56.3636H21.8182C21.336 56.3636 20.8735 56.5552 20.5325 56.8962C20.1916 57.2371 20 57.6996 20 58.1818C20 58.664 20.1916 59.1265 20.5325 59.4675C20.8735 59.8084 21.336 60 21.8182 60H58.1818C58.664 60 59.1265 59.8084 59.4675 59.4675C59.8084 59.1265 60 58.664 60 58.1818C60 57.6996 59.8084 57.2371 59.4675 56.8962C59.1265 56.5552 58.664 56.3636 58.1818 56.3636ZM29.0909 30.9091C28.7313 30.9091 28.3798 31.0157 28.0808 31.2155C27.7818 31.4153 27.5487 31.6993 27.4111 32.0315C27.2735 32.3637 27.2375 32.7293 27.3077 33.082C27.3778 33.4347 27.551 33.7586 27.8053 34.0129C28.0595 34.2672 28.3835 34.4404 28.7362 34.5105C29.0889 34.5807 29.4545 34.5447 29.7867 34.4071C30.1189 34.2694 30.4029 34.0364 30.6027 33.7374C30.8025 33.4384 30.9091 33.0869 30.9091 32.7273C30.9091 32.2451 30.7175 31.7826 30.3766 31.4416C30.0356 31.1006 29.5731 30.9091 29.0909 30.9091ZM54.5455 20H25.4545C24.0079 20 22.6205 20.5747 21.5976 21.5976C20.5747 22.6205 20 24.0079 20 25.4545V40C20 41.4466 20.5747 42.834 21.5976 43.8569C22.6205 44.8799 24.0079 45.4545 25.4545 45.4545H54.5455C55.9921 45.4545 57.3795 44.8799 58.4024 43.8569C59.4253 42.834 60 41.4466 60 40V25.4545C60 24.0079 59.4253 22.6205 58.4024 21.5976C57.3795 20.5747 55.9921 20 54.5455 20ZM56.3636 40C56.3636 40.4822 56.1721 40.9447 55.8311 41.2856C55.4901 41.6266 55.0277 41.8182 54.5455 41.8182H25.4545C24.9723 41.8182 24.5099 41.6266 24.1689 41.2856C23.8279 40.9447 23.6364 40.4822 23.6364 40V25.4545C23.6364 24.9723 23.8279 24.5099 24.1689 24.1689C24.5099 23.8279 24.9723 23.6364 25.4545 23.6364H54.5455C55.0277 23.6364 55.4901 23.8279 55.8311 24.1689C56.1721 24.5099 56.3636 24.9723 56.3636 25.4545V40ZM40 27.2727C38.9212 27.2727 37.8666 27.5926 36.9696 28.192C36.0726 28.7913 35.3735 29.6432 34.9607 30.6399C34.5478 31.6366 34.4398 32.7333 34.6503 33.7914C34.8607 34.8495 35.3802 35.8214 36.1431 36.5842C36.9059 37.3471 37.8778 37.8665 38.9359 38.077C39.9939 38.2875 41.0907 38.1795 42.0874 37.7666C43.0841 37.3538 43.9359 36.6547 44.5353 35.7577C45.1346 34.8607 45.4545 33.8061 45.4545 32.7273C45.4545 31.2806 44.8799 29.8933 43.8569 28.8703C42.834 27.8474 41.4466 27.2727 40 27.2727ZM40 34.5455C39.6404 34.5455 39.2889 34.4388 38.9899 34.239C38.6909 34.0393 38.4578 33.7553 38.3202 33.4231C38.1826 33.0908 38.1466 32.7253 38.2168 32.3726C38.2869 32.0199 38.4601 31.6959 38.7144 31.4416C38.9686 31.1873 39.2926 31.0142 39.6453 30.944C39.998 30.8739 40.3636 30.9099 40.6958 31.0475C41.028 31.1851 41.312 31.4181 41.5118 31.7171C41.7115 32.0161 41.8182 32.3677 41.8182 32.7273C41.8182 33.2095 41.6266 33.6719 41.2856 34.0129C40.9447 34.3539 40.4822 34.5455 40 34.5455ZM50.9091 30.9091C50.5495 30.9091 50.198 31.0157 49.899 31.2155C49.6 31.4153 49.3669 31.6993 49.2293 32.0315C49.0917 32.3637 49.0557 32.7293 49.1258 33.082C49.196 33.4347 49.3692 33.7586 49.6234 34.0129C49.8777 34.2672 50.2017 34.4404 50.5544 34.5105C50.9071 34.5807 51.2726 34.5447 51.6049 34.4071C51.9371 34.2694 52.2211 34.0364 52.4209 33.7374C52.6206 33.4384 52.7273 33.0869 52.7273 32.7273C52.7273 32.2451 52.5357 31.7826 52.1947 31.4416C51.8538 31.1006 51.3913 30.9091 50.9091 30.9091Z" fill="#FFBC57"/>
</g>
<defs>
<clipPath id="clip0_131_3230">
<rect width="80" height="80" fill="white"/>
</clipPath>
</defs>
</svg>
