<svg width="80" height="80" viewBox="0 0 80 80" fill="none" xmlns="http://www.w3.org/2000/svg">
<g clip-path="url(#clip0_131_3252)">
<circle cx="40" cy="39.75" r="40" fill="white"/>
<path d="M42.8289 29.2287C42.6209 29.435 42.4559 29.6803 42.3433 29.9507C42.2306 30.221 42.1726 30.511 42.1726 30.8039C42.1726 31.0968 42.2306 31.3867 42.3433 31.6571C42.4559 31.9274 42.6209 32.1728 42.8289 32.3791L47.0885 36.6387C47.2947 36.8466 47.5401 37.0117 47.8105 37.1243C48.0808 37.2369 48.3708 37.2949 48.6637 37.2949C48.9565 37.2949 49.2465 37.2369 49.5169 37.1243C49.7872 37.0117 50.0326 36.8466 50.2388 36.6387L59.2905 27.587C59.5331 27.3899 59.7313 27.1437 59.8721 26.8646C60.0129 26.5856 60.0932 26.2799 60.1076 25.9676C60.1221 25.6554 60.0703 25.3436 59.9559 25.0527C59.8414 24.7619 59.6667 24.4985 59.4434 24.2798C59.22 24.0611 58.9529 23.8922 58.6597 23.7839C58.3664 23.6757 58.0536 23.6306 57.7417 23.6517C57.4299 23.6728 57.126 23.7596 56.85 23.9063C56.574 24.0531 56.3321 24.2565 56.1402 24.5032L48.6637 31.9354L45.9792 29.2287C45.773 29.0208 45.5276 28.8557 45.2573 28.7431C44.9869 28.6305 44.6969 28.5725 44.4041 28.5725C44.1112 28.5725 43.8212 28.6305 43.5508 28.7431C43.2805 28.8557 43.0351 29.0208 42.8289 29.2287ZM57.5157 37.0158C56.9305 37.0666 56.3894 37.3474 56.011 37.7965C55.6325 38.2457 55.4476 38.8266 55.4968 39.4119C55.5079 39.6188 55.5079 39.8261 55.4968 40.0331C55.4968 44.1518 53.8606 48.1019 50.9482 51.0143C48.0358 53.9267 44.0857 55.5629 39.967 55.5629H27.5653L28.9851 54.1652C29.3983 53.7495 29.6303 53.1872 29.6303 52.6011C29.6303 52.015 29.3983 51.4527 28.9851 51.0371C27.001 49.0637 25.5869 46.5908 24.8925 43.8799C24.198 41.169 24.249 38.3208 25.04 35.6365C25.8309 32.9522 27.3325 30.5315 29.386 28.6303C31.4395 26.7292 33.9685 25.4182 36.7057 24.836C38.756 24.426 40.8673 24.426 42.9176 24.836C43.209 24.8943 43.5089 24.8946 43.8004 24.8369C44.0919 24.7793 44.3691 24.6648 44.6163 24.4999C44.8635 24.3351 45.0759 24.1233 45.2412 23.8764C45.4065 23.6295 45.5216 23.3525 45.5799 23.0612C45.6381 22.7698 45.6385 22.4698 45.5808 22.1784C45.5231 21.8869 45.4086 21.6097 45.2438 21.3624C45.079 21.1152 44.8671 20.9029 44.6203 20.7376C44.3734 20.5722 44.0964 20.4572 43.805 20.3989C41.1619 19.867 38.4392 19.867 35.7961 20.3989C31.3173 21.3765 27.3079 23.8574 24.4342 27.4293C21.5606 31.0011 19.9959 35.4488 20 40.0331C20.0186 44.5727 21.5837 48.9705 24.4371 52.5013L20.6434 56.2063C20.3355 56.5183 20.127 56.9144 20.0441 57.3448C19.9612 57.7752 20.0076 58.2205 20.1775 58.6245C20.3439 59.0296 20.6266 59.3765 20.9898 59.6212C21.353 59.866 21.7806 59.9978 22.2186 60H39.967C45.2625 60 50.3412 57.8963 54.0857 54.1518C57.8302 50.4073 59.9339 45.3286 59.9339 40.0331C59.9339 39.7003 59.9339 39.3897 59.9339 39.0569C59.9116 38.7632 59.831 38.4768 59.6969 38.2146C59.5628 37.9523 59.3778 37.7194 59.1527 37.5294C58.9276 37.3394 58.6669 37.1962 58.3858 37.108C58.1048 37.0198 57.809 36.9885 57.5157 37.0158Z" fill="#FFBC57"/>
</g>
<defs>
<clipPath id="clip0_131_3252">
<rect width="80" height="80" fill="white"/>
</clipPath>
</defs>
</svg>
