<svg width="80" height="80" viewBox="0 0 80 80" fill="none" xmlns="http://www.w3.org/2000/svg">
<g clip-path="url(#clip0_131_3241)">
<circle cx="40" cy="39.75" r="40" fill="white"/>
<path d="M55.2698 23.2977C55.0374 23.1097 54.7658 22.9762 54.4749 22.9069C54.1841 22.8377 53.8815 22.8345 53.5893 22.8976C51.4515 23.3456 49.2446 23.3514 47.1045 22.9144C44.9644 22.4774 42.9364 21.607 41.1454 20.3568C40.8105 20.1245 40.4126 20 40.005 20C39.5974 20 39.1996 20.1245 38.8647 20.3568C37.0736 21.607 35.0456 22.4774 32.9055 22.9144C30.7654 23.3514 28.5586 23.3456 26.4208 22.8976C26.1286 22.8345 25.8259 22.8377 25.5351 22.9069C25.2443 22.9762 24.9727 23.1097 24.7402 23.2977C24.5081 23.486 24.3212 23.7239 24.1931 23.994C24.065 24.264 23.999 24.5593 24 24.8582V39.7629C23.9982 42.6313 24.6818 45.4586 25.9937 48.0094C27.3056 50.5602 29.208 52.7606 31.5424 54.4275L38.8447 59.6291C39.1835 59.8704 39.5891 60 40.005 60C40.421 60 40.8266 59.8704 41.1654 59.6291L48.4677 54.4275C50.802 52.7606 52.7044 50.5602 54.0163 48.0094C55.3283 45.4586 56.0118 42.6313 56.01 39.7629V24.8582C56.011 24.5593 55.9451 24.264 55.817 23.994C55.6889 23.7239 55.5019 23.486 55.2698 23.2977ZM52.0088 39.7629C52.0103 41.9931 51.4792 44.1914 50.4596 46.1749C49.44 48.1584 47.9614 49.8698 46.1469 51.1665L40.005 55.5478L33.8631 51.1665C32.0486 49.8698 30.57 48.1584 29.5504 46.1749C28.5309 44.1914 27.9997 41.9931 28.0013 39.7629V27.159C32.1954 27.5179 36.396 26.5448 40.005 24.3781C43.6141 26.5448 47.8146 27.5179 52.0088 27.159V39.7629ZM43.086 35.1815L37.7043 40.5832L35.9237 38.7826C35.547 38.4059 35.0361 38.1942 34.5033 38.1942C33.9705 38.1942 33.4596 38.4059 33.0829 38.7826C32.7061 39.1593 32.4945 39.6703 32.4945 40.203C32.4945 40.7358 32.7061 41.2468 33.0829 41.6235L36.2839 44.8245C36.4698 45.012 36.6911 45.1608 36.9349 45.2624C37.1787 45.364 37.4402 45.4163 37.7043 45.4163C37.9684 45.4163 38.2299 45.364 38.4737 45.2624C38.7175 45.1608 38.9388 45.012 39.1247 44.8245L46.0069 38.0023C46.3836 37.6256 46.5953 37.1147 46.5953 36.5819C46.5953 36.0491 46.3836 35.5382 46.0069 35.1615C45.6302 34.7847 45.1192 34.5731 44.5865 34.5731C44.0537 34.5731 43.5427 34.7847 43.166 35.1615L43.086 35.1815Z" fill="#FFBC57"/>
</g>
<defs>
<clipPath id="clip0_131_3241">
<rect width="80" height="80" fill="white"/>
</clipPath>
</defs>
</svg>
