<svg width="250" height="50" viewBox="0 0 250 50" fill="none" xmlns="http://www.w3.org/2000/svg">
<path d="M98.5259 36.5284H94.8927V34.6589H104.038V36.5284H100.405V45.7509H98.4006V36.5284H98.5259ZM113.058 45.7509H106.419V34.6589H112.808V36.5284H108.298V39.2702H112.307V41.1397H108.298V44.0061H112.933V45.7509H113.058ZM122.705 34.6589H124.96L121.202 40.018L125.086 45.6263H122.83L119.949 41.5136L117.067 45.6263H114.812L118.696 40.018L114.938 34.6589H117.193L119.949 38.6471L122.705 34.6589ZM136.486 45.7509H134.482V41.015H129.47V45.7509H127.466V34.6589H129.47V39.1456H134.607V34.6589H136.486V45.7509ZM139.368 40.2673C139.368 38.6471 139.869 37.2762 140.996 36.1545C142.124 35.0328 143.502 34.5343 145.131 34.5343C146.759 34.5343 148.137 35.0328 149.265 36.1545C150.392 37.2762 150.893 38.6471 150.893 40.2673C150.893 41.8874 150.392 43.2584 149.265 44.38C148.137 45.5017 146.759 46.0002 145.131 46.0002C143.502 46.0002 142.124 45.5017 140.996 44.38C139.869 43.2584 139.368 41.8874 139.368 40.2673ZM141.372 40.2673C141.372 41.3889 141.748 42.2613 142.374 43.0091C143.001 43.7569 144.003 44.1308 145.005 44.1308C146.133 44.1308 147.01 43.7569 147.761 43.0091C148.388 42.2613 148.764 41.3889 148.764 40.2673C148.764 39.1456 148.388 38.1486 147.636 37.5254C146.884 36.7776 146.007 36.4038 145.005 36.4038C143.878 36.4038 143.001 36.7776 142.374 37.5254C141.748 38.1486 141.372 39.1456 141.372 40.2673ZM161.918 45.7509H160.039V36.5284H156.782L156.531 38.6471C156.406 39.8934 156.281 41.015 156.03 41.8874C155.779 42.7598 155.654 43.5076 155.404 44.0061C155.153 44.5046 154.902 45.0032 154.527 45.2524C154.151 45.5017 153.9 45.7509 153.524 45.7509C153.149 45.8756 152.773 45.8756 152.272 45.7509V43.8815C152.522 43.8815 152.647 43.8815 152.898 43.8815C153.023 43.8815 153.274 43.6322 153.399 43.383C153.65 43.1337 153.775 42.7598 153.9 42.2613C154.276 41.1397 154.527 39.3949 154.777 36.9023L154.902 34.6589H161.918V45.7509ZM164.8 40.2673C164.8 38.6471 165.301 37.2762 166.428 36.1545C167.556 35.0328 168.934 34.5343 170.563 34.5343C172.191 34.5343 173.569 35.0328 174.697 36.1545C175.824 37.2762 176.326 38.6471 176.326 40.2673C176.326 41.8874 175.824 43.2584 174.697 44.38C173.569 45.5017 172.191 46.0002 170.563 46.0002C168.934 46.0002 167.556 45.5017 166.428 44.38C165.301 43.2584 164.8 41.8874 164.8 40.2673ZM166.929 40.2673C166.929 41.3889 167.305 42.2613 167.932 43.0091C168.558 43.7569 169.56 44.1308 170.563 44.1308C171.69 44.1308 172.567 43.7569 173.319 43.0091C173.945 42.2613 174.321 41.3889 174.321 40.2673C174.321 39.1456 173.945 38.1486 173.194 37.5254C172.442 36.7776 171.565 36.4038 170.563 36.4038C169.435 36.4038 168.558 36.7776 167.932 37.5254C167.18 38.1486 166.929 39.1456 166.929 40.2673ZM181.212 45.7509H179.207V34.6589H185.471V36.5284H181.212V45.7509ZM190.107 45.7509H188.102V34.6589H190.107V45.7509ZM192.988 32.7895C192.988 32.5403 193.113 32.291 193.239 32.0417C193.489 31.9171 193.74 31.7925 193.99 31.7925C194.241 31.7925 194.491 31.9171 194.742 32.0417C194.993 32.1664 194.993 32.4156 194.993 32.7895C194.993 33.1634 194.867 33.4127 194.742 33.5373C194.617 33.6619 194.366 33.7865 193.99 33.7865C193.74 33.7865 193.489 33.6619 193.239 33.5373C193.113 33.288 192.988 33.0388 192.988 32.7895ZM196.245 45.7509H194.241V34.6589H196.245V45.7509ZM195.619 32.7895C195.619 32.5403 195.744 32.291 195.869 32.0417C196.12 31.9171 196.371 31.7925 196.621 31.7925C196.872 31.7925 197.122 31.9171 197.373 32.0417C197.623 32.291 197.623 32.4156 197.623 32.7895C197.623 33.1634 197.498 33.4127 197.373 33.5373C197.248 33.7865 196.997 33.7865 196.621 33.7865C196.245 33.7865 195.995 33.6619 195.869 33.5373C195.744 33.288 195.619 33.0388 195.619 32.7895ZM211.905 43.2584L212.657 44.7539C212.281 45.1278 211.78 45.3771 211.154 45.6263C210.527 45.8756 209.776 46.0002 209.149 46.0002C207.395 46.0002 206.017 45.5017 205.015 44.38C204.013 43.383 203.386 42.0121 203.386 40.2673C203.386 38.6471 203.887 37.2762 204.89 36.1545C205.892 35.0328 207.27 34.5343 209.024 34.5343C210.402 34.5343 211.53 34.9082 212.407 35.656L211.53 37.1515C210.778 36.653 209.901 36.4038 209.024 36.4038C208.022 36.4038 207.145 36.7776 206.393 37.4008C205.767 38.1486 205.391 39.021 205.391 40.2673C205.391 41.3889 205.767 42.386 206.393 43.1337C207.145 43.8815 208.022 44.2554 209.149 44.2554C210.277 44.1308 211.154 43.8815 211.905 43.2584ZM224.183 45.7509H222.304V41.015H217.167V45.7509H215.163V34.6589H217.167V39.1456H222.304V34.6589H224.183V45.7509ZM235.083 34.6589H237.087L233.329 43.1337C232.953 44.0061 232.452 44.6293 232.076 45.1278C231.575 45.5017 231.074 45.7509 230.322 45.7509C229.57 45.7509 229.194 45.6263 228.818 45.2524L229.445 43.6322C229.695 43.7569 229.946 43.8815 230.322 43.8815C230.823 43.8815 231.199 43.6322 231.449 43.1337L231.575 42.7598L226.689 34.6589H228.944L232.577 40.8904L235.083 34.6589Z" fill="white"/>
<path d="M92.6447 15.715L103.419 28.8011H96.5285L87.884 17.9583V28.8011H82.4969V4.24914H87.884V14.2195L96.1526 4.24914H102.793L92.6447 15.715ZM202.516 9.35893H210.033V28.8011H215.42V9.35893H222.937V4.24914H202.391V9.35893H202.516ZM118.954 18.9554L126.596 28.8011H120.081L113.692 20.077H111.688V28.8011H106.3V4.24914H106.927C108.054 4.24914 109.307 4.24914 110.685 4.24914C112.063 4.24914 113.191 4.24914 114.068 4.24914C121.585 4.24914 123.213 8.48653 123.213 12.1008C123.213 13.9702 122.712 15.5904 121.71 16.8367C120.833 17.7091 119.956 18.4569 118.954 18.9554ZM112.314 9.35893C112.063 9.35893 111.938 9.35893 111.688 9.35893V14.9672H113.692C114.82 14.9672 115.822 14.718 116.573 14.0948C117.2 13.5963 117.576 12.8485 117.576 11.9761C117.576 10.7299 117.2 9.2343 113.817 9.2343C113.692 9.2343 113.567 9.2343 113.316 9.2343C113.066 9.35893 112.69 9.35893 112.314 9.35893ZM193.872 4.24914L204.27 28.8011H198.507L196.127 22.8189H186.982L184.601 28.8011H179.089L189.362 4.24914H193.872ZM191.492 11.7269L188.986 17.7091H193.997L191.492 11.7269ZM249.497 16.5874C249.497 20.2017 248.244 23.3174 245.864 25.6853C243.483 28.0533 240.351 29.2996 236.718 29.2996C233.085 29.2996 229.953 28.1779 227.573 25.81C225.192 23.442 223.94 20.4509 223.94 16.7121C223.94 13.2224 225.192 10.1067 227.573 7.73876C229.953 5.3708 233.085 4.12451 236.718 4.12451C240.351 4.12451 243.483 5.24617 245.864 7.61413C248.244 9.73282 249.497 12.8485 249.497 16.5874ZM241.98 21.9465C243.358 20.4509 243.985 18.7061 243.985 16.4628C243.985 14.2195 243.358 12.4747 241.855 10.9791C240.477 9.60819 238.723 8.86042 236.718 8.86042C234.588 8.86042 232.96 9.60819 231.582 10.9791C230.204 12.35 229.577 14.2195 229.577 16.4628C229.577 18.7061 230.204 20.4509 231.582 21.8218C232.96 23.3174 234.588 23.9405 236.718 23.9405C238.973 24.0652 240.602 23.442 241.98 21.9465ZM176.082 4.24914L169.818 20.4509L163.303 4.24914H157.54L167.688 28.8011H171.697L181.594 4.24914H176.082Z" fill="white"/>
<path d="M153.102 6.49432C151.595 4.99773 149.585 4.12472 147.45 4.12472C145.315 4.12472 143.306 4.99773 141.799 6.49432L141.422 6.86847L140.919 6.3696C139.412 4.87301 137.403 4 135.268 4C133.132 4 131.123 4.87301 129.616 6.3696C128.109 7.8662 127.229 9.86165 127.229 11.9818C127.229 14.102 128.109 16.0975 129.616 17.594L140.543 28.4443C140.794 28.6938 141.045 28.8185 141.422 28.8185C141.799 28.8185 142.05 28.6938 142.301 28.4443L153.228 17.594C154.735 16.0975 155.614 14.102 155.614 11.9818C155.614 9.86165 154.735 7.99091 153.102 6.49432Z" fill="#00B5FF"/>
<mask id="mask0_68_363" style="mask-type:alpha" maskUnits="userSpaceOnUse" x="127" y="4" width="29" height="25">
<path d="M153.102 6.49432C151.595 4.99773 149.585 4.12472 147.45 4.12472C145.315 4.12472 143.306 4.99773 141.799 6.49432L141.422 6.86847L140.919 6.3696C139.412 4.87301 137.403 4 135.268 4C133.132 4 131.123 4.87301 129.616 6.3696C128.109 7.8662 127.229 9.86165 127.229 11.9818C127.229 14.102 128.109 16.0975 129.616 17.594L140.543 28.4443C140.794 28.6938 141.045 28.8185 141.422 28.8185C141.799 28.8185 142.05 28.6938 142.301 28.4443L153.228 17.594C154.735 16.0975 155.614 14.102 155.614 11.9818C155.614 9.86165 154.735 7.99091 153.102 6.49432Z" fill="#00B5FF"/>
</mask>
<g mask="url(#mask0_68_363)">
<rect x="126.293" y="14.3228" width="30.0675" height="15.0844" fill="#FFBC00"/>
</g>
<path d="M7.23477 18.4002V44.8002C7.23477 45.5202 6.75246 46.0002 6.02898 46.0002H1.2058C0.482318 46.0002 0 45.5202 0 44.8002V18.4002C0 17.6802 0.482318 17.2002 1.2058 17.2002H6.02898C6.75246 17.2002 7.23477 17.8002 7.23477 18.4002ZM72.7942 17.2002H67.971C67.2476 17.2002 66.7652 17.6802 66.7652 18.4002V44.8002C66.7652 45.5202 67.2476 46.0002 67.971 46.0002H72.7942C73.5177 46.0002 74 45.5202 74 44.8002V18.4002C74 17.8002 73.5177 17.2002 72.7942 17.2002Z" fill="#FFBC57"/>
<path d="M64.3536 25.6V32.8C64.3536 33.52 63.8713 34 63.1479 34H10.8522C10.1287 34 9.64636 33.52 9.64636 32.8V25.6C9.64636 24.88 10.1287 24.4 10.8522 24.4H63.1479C63.8713 24.4 64.3536 24.88 64.3536 25.6ZM10.8522 22H25.0686C25.7921 22 26.2744 21.52 26.2744 20.8V5.2C26.2744 4.48 25.7921 4 25.0686 4H10.8522C10.1287 4 9.64636 4.48 9.64636 5.2V20.8C9.64636 21.52 10.1287 22 10.8522 22ZM29.8918 22H44.1082C44.8317 22 45.314 21.52 45.314 20.8V5.2C45.314 4.48 44.8317 4 44.1082 4H29.8918C29.1683 4 28.686 4.48 28.686 5.2V20.8C28.686 21.52 29.1683 22 29.8918 22ZM63.1479 4H48.9314C48.2079 4 47.7256 4.48 47.7256 5.2V20.8C47.7256 21.52 48.2079 22 48.9314 22H63.1479C63.8713 22 64.3536 21.52 64.3536 20.8V5.2C64.3536 4.48 63.8713 4 63.1479 4ZM63.1479 36.4H10.8522C10.1287 36.4 9.64636 36.88 9.64636 37.6V44.8C9.64636 45.52 10.1287 46 10.8522 46H17.8338C18.5573 46 19.0396 45.52 19.0396 44.8V43.6H54.9604V44.8C54.9604 45.52 55.4427 46 56.1662 46H63.1479C63.8713 46 64.3536 45.52 64.3536 44.8V37.6C64.3536 36.88 63.8713 36.4 63.1479 36.4Z" fill="#FFBC57"/>
</svg>
